<svg xmlns="http://www.w3.org/2000/svg" width="388" height="369" fill="none"><path fill="#C49F65" d="M33.475 9.774s-1.503-4.443 4.416-4.443h313.966s1.978-.177 1.978 1.967v257.851s.935 25.3-22.939 36.567c-23.873 11.268-135.631 62.113-135.631 62.113s-1.219.81-2.718.136l-138.823-64.08s-20.232-12.917-20.232-36.315c0-23.399-.017-253.796-.017-253.796Z"/><path fill="#E5C28A" d="M193.947.041C248.473.041 302.995.05 357.521 0c1.623 0 1.944.403 1.944 1.975-.041 71.574-.029 143.149-.058 214.727 0 1.23.334 1.987 1.351 2.728 8.399 6.104 16.752 12.275 25.117 18.429 2.064 1.518 2.142 3.875.206 5.615-3.661 3.291-7.999 5.439-12.385 7.565-4.144 2.012-8.473 3.452-12.884 4.682-1.157.325-1.442.843-1.392 1.958.44 10.013-1.78 19.396-6.949 28.014-6.24 10.408-15.05 17.883-26.089 22.901-21.558 9.795-43.121 19.573-64.58 29.586-19.804 9.239-39.863 17.919-59.736 26.998-2.208 1.008-4.453 1.95-6.628 3.024-1.029.51-1.894.514-2.945.041-19.729-8.881-39.558-17.545-59.188-26.636-24.388-11.296-48.867-22.395-73.255-33.692-5.964-2.764-11.413-6.351-16.01-11.049-10.293-10.519-16.043-22.987-15.668-37.916.04-1.703-.38-2.419-2.122-2.888-8.22-2.209-15.899-5.64-22.732-10.802-.745-.564-1.445-1.198-2.137-1.831-1.961-1.802-1.813-4.048.313-5.607 8.55-6.273 17.08-12.572 25.648-18.824.774-.564 1.03-1.156.997-2.061-.054-1.654-.008-3.312-.008-4.97V2.377c0-2.332 0-2.332 2.38-2.332C85.118.041 139.532.041 193.947.041Zm155.48 245.251c5.013.782 10.009.852 14.973-.349 3.653-.885 7.129-2.18 10.445-4.373l-2.249-1.674a71182.558 71182.558 0 0 0-23.539-17.434c.601-.457.37-1.111.37-1.687.009-69.629.009-139.261.046-208.89 0-1.543-.445-1.917-1.953-1.917C245.845 9.005 144.17 9 42.495 9c-4.287 0-4.287 0-4.287 4.327.008 69.63.012 139.262.02 208.891-5.202 4.159-10.668 7.964-16.006 11.938-2.842 2.118-5.688 4.233-8.584 6.388 5.277 3.596 14.07 6.475 24.57 4.854 0 5.081-.066 10.161.029 15.238.07 3.969.576 7.919 1.787 11.707 3.18 9.96 9.465 17.66 17.868 23.679 6.01 4.303 13 6.734 19.618 9.86 6.772 3.197 13.662 6.13 20.467 9.256 7.352 3.378 14.651 6.874 21.995 10.272 5.194 2.403 10.429 4.71 15.639 7.072 6.175 2.797 12.27 5.755 18.391 8.667 5.812 2.765 11.751 5.258 17.629 7.874 7.047 3.135 14.099 6.257 21.122 9.445.992.448 1.742.288 2.64-.132a639.45 639.45 0 0 1 10.367-4.698c6.438-2.859 12.954-5.553 19.314-8.585 5.218-2.489 10.544-4.747 15.73-7.326 7.595-3.777 15.404-7.125 23.123-10.655 10.619-4.854 21.237-9.712 31.856-14.567 6.265-2.863 12.558-5.664 18.794-8.593 4.222-1.983 8.609-3.628 12.588-6.105 6.849-4.262 12.533-9.7 16.648-16.669 3.452-5.841 5.487-12.143 5.59-18.964.086-5.619.02-11.251.024-16.883Z"/><path fill="#010101" d="M71.546 225.559c-5.458 4.031-10.993 7.964-16.344 12.127-5.078 3.949-10.713 6.504-16.998 7.718-10.5 1.62-19.293-1.259-24.57-4.855 2.896-2.155 5.742-4.27 8.584-6.388 5.338-3.974 10.804-7.783 16.006-11.938 4.148-3.016 8.32-5.998 12.435-9.055a2397.06 2397.06 0 0 0 19.85-14.895c1.025-.778 2.046-1.103 3.319-1.119 3.592-.041 7.18-.231 10.77-.309.99-.02 1.797-.354 2.612-.872a2962.03 2962.03 0 0 1 18.856-11.995c1.916-1.206 4.058-1.177 5.94-.112 8.353 4.723 16.64 9.573 24.956 14.361.668.383 1.376.687 2.068 1.029.198.177.375.391.597.522 7.006 4.135 14.029 8.24 21.019 12.403 1.586.946 3.369 1.596 4.679 2.979-.124.88-.037 1.752.111 2.624 2.566 15.147 18.63 26.167 33.726 23.086 13.341-2.723 23.193-14.85 23.272-25.694 6.388-3.353 12.381-7.372 18.633-10.951 4.296-2.46 8.543-4.994 12.814-7.495 6.5-3.727 12.987-7.483 19.512-11.169 1.511-.851 2.85-2.122 4.691-2.291 2.022-.189 3.789.276 5.569 1.46 5.869 3.913 11.879 7.615 17.822 11.42.676.432 1.339.662 2.15.679 3.753.086 7.505.263 11.257.337 1.042.021 1.887.28 2.731.913 10.104 7.57 20.232 15.102 30.36 22.642.35.264.725.494 1.088.741 7.846 5.812 15.693 11.625 23.539 17.434.7.518 1.397 1.036 2.249 1.674-3.316 2.193-6.792 3.488-10.445 4.373-4.968 1.201-9.96 1.131-14.973.349-8.176-1.472-14.605-6.207-20.948-11.135-3.353-2.604-6.801-5.089-10.215-7.619-.334-.247-.614-.642-1.598-.514l15.359 19.725c-9.053.815-17.649.634-24.577-6.096-6.533-6.344-12.975-12.778-19.458-19.17-.502-.498-1.054-.947-1.586-1.42-.119-.341-.346-.341-.618-.189l.396.424c3.332 6.154 6.668 12.308 10.116 18.672-2.191.535-4.292 1.07-6.397 1.563-16.71 3.917-33.416 7.833-50.135 11.712-1.557.362-2.846 1.008-4.045 2.077a3557.87 3557.87 0 0 1-26.035 23.087c-1.047.917-.906 1.349-.021 2.217 5.248 5.138 10.516 10.259 15.615 15.541 2.99 3.098 6.03 6.146 9.082 9.178.741.737.717 1.127-.012 1.814a61.135 61.135 0 0 1-16.258 10.988c-.902.42-1.235.07-1.705-.572-3.32-4.545-6.668-9.075-10.009-13.604-.251-.341-.502-.679-1.046-.921.511 3.274 1.013 6.553 1.532 9.823.589 3.707 1.174 7.409 1.813 11.107.164.955-.054 1.321-1.063 1.559-8.81 2.057-17.625 2.111-26.464.223-1.079-.231-1.615-.478-1.409-1.893 1.005-6.936 1.829-13.892 2.711-20.844.024-.193.004-.387.004-.958-2.566 3.467-4.918 6.643-7.27 9.823-1.376 1.864-2.801 3.698-4.099 5.619-.593.885-1.112.761-1.911.383-5.853-2.748-11.092-6.364-15.812-10.774-.832-.777-.601-1.127.062-1.789 8.279-8.277 16.516-16.599 24.812-24.855.848-.848.803-1.206-.066-1.971a6704.065 6704.065 0 0 1-27.477-24.452c-.589-.526-1.293-.604-1.969-.761-18.366-4.323-36.736-8.643-55.123-12.892-1.479-.342-1.397-.741-.766-1.868 2.928-5.245 5.783-10.535 8.645-15.817.194-.354.614-.691.322-1.222-.668-.066-.911.523-1.269.872-6.108 5.998-12.29 11.926-18.263 18.051-5.322 5.463-11.756 7.788-19.244 7.672-2.137-.033-4.275-.004-6.866-.004l15.635-20.252c.079-.098.243-.259.223-.287-.148-.194-.322-.103-.478.016Zm244.683.021c.19.123.297.218.42.259.062.02.181-.037.227-.099.14-.189-.054-.296-.165-.317-.119-.016-.26.078-.482.157Z"/><path fill="#E5C28A" d="M253.881 196.726c-4.271 2.501-8.518 5.039-12.814 7.495-6.252 3.579-12.245 7.598-18.634 10.951-6.936-.033-13.872-.062-20.804-.115-.379-.004-.449.218-.593.436-.544-2.645-.717-5.328-.943-8.01-.091-1.061.325-1.563 1.227-2.02 5.075-2.562 10.124-5.17 15.162-7.799.811-.424 1.487-.465 2.315-.029 1.738.913 3.529 1.724 5.445 2.641.189-2.213.317-4.188.539-6.15.486-4.282-2.282-7.676-6.557-7.795-10.211-.292-20.421-.486-30.632-.798-1.397-.042-1.673.51-1.71 1.699-.078 2.756-.238 5.508-.379 8.26-.337 6.549-.687 13.098-1.029 19.647-6.385.008-12.765.012-19.149.021-1.31-1.383-3.093-2.033-4.679-2.979-6.99-4.163-14.013-8.268-21.019-12.403-.222-.131-.399-.345-.597-.522-.037-1.666 1.236-2.703 2.096-3.814 3.683-4.759 7.876-9.083 12.687-12.694 9.609-7.212 20.298-11.988 32.284-13.753 4.432-.654 8.863-1.032 13.328-.884 6.022.202 11.92 1.209 17.712 2.892a69.476 69.476 0 0 1 20.858 10.066c5.453 3.859 10.346 8.347 14.362 13.728.486.662 1.257 1.098 1.524 1.929Z"/><path fill="#010101" d="M95.86 111.971c2.245.679 4.489 1.205 6.574 2.246.951.477 1.338 1.037 1.334 2.164-.045 10.548-.033 21.095.008 31.643.004 1.02-.333 1.6-1.211 2.085-5.437 2.983-11.355 3.875-17.422 3.987-6.08.111-12.164-.009-18.247.053-1.211.012-1.438-.383-1.438-1.497.03-26.509.025-53.014.008-79.522 0-.807.013-1.35 1.096-1.325 8.118.21 16.261-.436 24.36.502 3.92.452 7.673 1.526 11.199 3.36.972.507 1.421 1.07 1.412 2.267a2906.14 2906.14 0 0 0-.008 29.821c.004 1.028-.301 1.592-1.227 2.032-2.068.971-4.214 1.637-6.438 2.184ZM79.438 131.17c0 4.36-.008 8.721.008 13.081 0 .543-.264 1.313.766 1.288 2.59-.066 5.194.189 7.768-.333 1.182-.239 1.718-.732 1.706-2.094a1353.57 1353.57 0 0 1-.005-23.843c.009-1.201-.46-1.637-1.49-1.909-2.443-.646-4.935-.436-7.415-.539-1.145-.049-1.375.387-1.363 1.436.054 4.299.025 8.606.025 12.913Zm0-36.995c0 4.143-.008 8.285.012 12.424.004.539-.296 1.357.704 1.349 2.649-.021 5.314.197 7.913-.518.873-.243 1.347-.634 1.339-1.712-.062-7.565-.062-15.13-.013-22.695.008-1.098-.391-1.567-1.388-1.835-2.224-.592-4.494-.436-6.75-.555-1.41-.074-1.908.243-1.858 1.777.127 3.92.04 7.845.04 11.765ZM241.282 112.971c0 11.872-.025 23.744.033 35.616.004 1.243-.396 1.843-1.492 2.366-7.352 3.496-15.124 4.352-23.119 3.706-4.934-.399-9.671-1.608-14.148-3.789-.968-.473-1.368-1.016-1.364-2.122.037-23.967.042-47.929.009-71.896 0-1.044.482-1.448 1.276-1.826 6.957-3.324 14.326-4.328 21.942-3.896 5.396.305 10.602 1.424 15.499 3.81 1.013.493 1.405 1.081 1.397 2.254-.054 11.921-.033 23.851-.033 35.777Zm-25.978.099c0 9.663.02 19.326-.029 28.989-.004 1.143.313 1.691 1.421 1.962 3.126.769 6.219.782 9.329-.066.927-.255 1.306-.641 1.302-1.69-.037-19.438-.041-38.871.004-58.308.004-1.201-.428-1.642-1.504-1.88-3.019-.683-6.013-.667-9.036-.02-1.191.254-1.533.814-1.524 2.027.061 9.66.041 19.322.037 28.986ZM149.422 112.889c0 11.921-.017 23.847.029 35.768.004 1.164-.35 1.757-1.397 2.259-7.446 3.566-15.322 4.41-23.428 3.723-4.881-.412-9.556-1.646-13.975-3.81-.902-.44-1.265-.962-1.261-2.007.037-23.901.046-47.806 0-71.706-.004-1.239.499-1.74 1.475-2.197 6.982-3.262 14.354-4.237 21.962-3.768 5.334.329 10.474 1.452 15.318 3.813 1.001.49 1.314 1.066 1.31 2.156-.041 11.921-.025 23.847-.025 35.769h-.008Zm-25.957.176c0 9.663.02 19.327-.029 28.99-.008 1.139.313 1.666 1.413 1.95 3.126.806 6.219.773 9.333-.025.947-.243 1.306-.679 1.306-1.711-.033-19.491-.037-38.986 0-58.477 0-1.07-.408-1.431-1.339-1.666-3.064-.777-6.116-.728-9.189-.066-1.149.247-1.537.786-1.528 2.016.066 9.663.037 19.326.033 28.989ZM285.696 114.888c0-12.592.016-25.184-.029-37.776-.004-1.156.333-1.761 1.384-2.259 6.714-3.188 13.802-4.18 21.142-3.686 5.112.342 10.034 1.44 14.659 3.744.976.485 1.31 1.049 1.306 2.155-.037 25.131-.041 50.258.004 75.388.004 1.411-.412 1.736-1.751 1.699a193.62 193.62 0 0 0-10.449 0c-1.38.037-1.854-.21-1.837-1.752.086-9.721.012-19.442.066-29.162.008-1.28-.264-1.732-1.615-1.666a73.401 73.401 0 0 1-7.13-.005c-1.367-.065-1.754.334-1.742 1.72.062 9.663.004 19.33.078 28.993.013 1.502-.37 1.93-1.886 1.88-3.592-.119-7.188-.094-10.783-.012-1.199.029-1.442-.358-1.438-1.485.037-12.592.021-25.184.021-37.776Zm14.045-18.051c0 4.467.045 8.935-.029 13.402-.02 1.193.35 1.494 1.491 1.461 2.537-.079 5.083-.091 7.62 0 1.149.041 1.368-.387 1.364-1.42-.033-8.988-.038-17.977.008-26.97.004-1.048-.391-1.476-1.306-1.723-2.504-.678-4.992-.724-7.521-.107-1.194.292-1.697.79-1.668 2.123.099 4.406.041 8.82.041 13.234Zm-.029-28.393h10.009l4.968-5.327h-10.302l-4.675 5.327ZM155.604 113.065c0-11.983.021-23.966-.033-35.95-.004-1.283.33-1.945 1.537-2.476 8.085-3.542 16.517-4.192 25.162-3.16 4.082.486 8.011 1.54 11.739 3.317.844.403 1.203.863 1.199 1.85-.046 8.175-.05 16.344-.005 24.518.005 1.078-.267 1.391-1.351 1.37-3.76-.066-7.521-.086-11.277.004-1.26.033-1.4-.444-1.392-1.513.045-5.854-.025-11.708.057-17.562.017-1.21-.379-1.65-1.478-1.851-2.916-.53-5.82-.555-8.732-.004-.989.189-1.438.596-1.434 1.744.041 19.771.041 39.537.004 59.307 0 1.07.285 1.592 1.335 1.819 3.126.674 6.244.674 9.379.061 1.071-.209 1.363-.748 1.355-1.818-.05-7.454-.062-14.908-.004-22.362.008-1.234-.289-1.58-1.549-1.559-3.971.066-3.975.008-3.975-4.003 0-1.711.041-3.426-.008-5.134-.025-.802.239-1.016 1.038-1.008 5.639.037 11.277.042 16.92 0 .874-.004 1.117.231 1.112 1.103-.024 13.254-.028 26.505.013 39.759.004 1.037-.593 1.296-1.294 1.629-4.975 2.349-10.276 3.344-15.713 3.632-7.262.383-14.33-.46-21.052-3.467-1.161-.523-1.586-1.136-1.581-2.46.057-11.93.028-23.856.028-35.786ZM270.41 118.895c0 11.205-.02 22.407.029 33.609.004 1.295-.317 1.682-1.631 1.649a202.547 202.547 0 0 0-10.94-.004c-1.441.041-1.672-.469-1.668-1.773.041-22.354.013-44.704.062-67.058.004-1.485-.33-1.962-1.87-1.876-2.533.145-5.083 0-7.624.054-.927.02-1.24-.23-1.219-1.197.066-2.925.103-5.854-.009-8.775-.053-1.357.276-1.752 1.689-1.74 8.732.07 17.464.037 26.192.037 2.154 0 4.313.033 6.467-.024.935-.025 1.211.292 1.194 1.225-.057 3.09-.057 6.183-.004 9.273.017.934-.243 1.238-1.202 1.213-2.653-.066-5.306.041-7.954-.049-1.194-.041-1.553.214-1.545 1.497.058 11.313.033 22.626.033 33.939ZM227.133 46.97c0 3.291-.041 6.582.025 9.87.016.904-.288 1.381-1.088 1.69-4.843 1.892-9.675 1.905-14.515-.041-.762-.305-.984-.782-.98-1.572.029-6.754.029-13.51 0-20.26-.004-.79.21-1.226.964-1.567 4.72-2.14 9.428-2.3 14.218-.19 1.08.478 1.434 1.05 1.409 2.197-.078 3.287-.029 6.582-.029 9.87 0 .003-.004.003-.004.003Zm-5.779-.176c0-2.37-.07-4.74.029-7.105.05-1.214-.395-1.699-1.544-1.682-.631.008-1.265.012-1.895.004-1.17-.017-1.541.514-1.524 1.699.066 4.735.074 9.47-.004 14.204-.021 1.218.424 1.679 1.544 1.687.631.004 1.265 0 1.895-.004 1.129-.013 1.59-.486 1.536-1.703-.111-2.361-.037-4.735-.037-7.1ZM164.897 47.505c0-3.525.045-7.05-.025-10.576-.021-1.099.371-1.596 1.359-2.04 4.552-2.062 9.033-1.963 13.535.127.733.341.997.749.997 1.563-.033 7.281-.033 14.563-.005 21.844.005.847-.16 1.18-1.12 1.21-4.658.152-4.658.189-4.658-4.456 0-1.04-.099-2.094.024-3.118.182-1.493-.407-1.863-1.833-1.777-2.792.164-2.434-.448-2.458 2.505-.017 1.847-.05 3.698.02 5.545.037.947-.189 1.284-1.219 1.304-4.613.095-4.613.132-4.613-4.508-.004-2.538-.004-5.08-.004-7.623Zm10.083-5.31c0-.98-.066-1.963.012-2.934.14-1.699-1.104-1.518-2.076-1.493-.988.02-2.331-.32-2.228 1.518.095 1.662.156 3.353-.021 5.002-.189 1.76.494 2.028 2.097 2.037 1.742.008 2.537-.395 2.228-2.234-.099-.617-.012-1.263-.012-1.897ZM140.443 47.003c.803.251 1.351.428 1.899.597.815.255 1.153.736 1.132 1.658a253.19 253.19 0 0 0 0 9.181c.013.889-.23 1.169-1.157 1.202-4.708.168-4.708.201-4.708-4.546 0-1.444.054-2.888-.012-4.332-.099-2.188-1.874-1.283-2.999-1.53-1.306-.284-1.166.65-1.161 1.469.012 2.542-.029 5.084.02 7.622.017.91-.148 1.296-1.198 1.32-4.688.12-4.688.157-4.688-4.578 0-6.582.041-13.168-.033-19.75-.016-1.32.346-1.678 1.635-1.617 2.826.14 5.668-.11 8.49.202.568.062 1.153.132 1.688.321 3.967 1.403 3.963 1.415 3.963 5.656v3.291c.004 2.843.004 2.843-2.871 3.834Zm-7.072-5.537c0 .745.049 1.498-.013 2.238-.094 1.123.037 1.966 1.5 1.683 1.149-.223 2.854.485 2.747-1.757-.066-1.374-.099-2.764.012-4.13.107-1.275-.399-1.736-1.614-1.822-2.637-.19-2.632-.223-2.632 2.41v1.378ZM246.06 47.661c0 3.526-.029 7.056.016 10.58.012.968-.128 1.4-1.289 1.408-4.527.033-4.523.082-4.523-4.422 0-5.147-.095-10.293.046-15.435.057-2.131-1.36-1.827-2.509-1.847-1.141-.02-2.339-.103-2.294 1.86.14 6.125.02 12.254.074 18.383.008 1.128-.28 1.453-1.433 1.457-4.42.004-4.42.05-4.42-4.336 0-6.13.029-12.255-.029-18.384-.008-1.037.35-1.522 1.261-1.934 4.642-2.102 9.247-2.114 13.897-.016.927.42 1.248.93 1.227 1.937-.062 3.58-.024 7.166-.024 10.75ZM90.46 47.48c0 3.637-.037 7.278.02 10.914.017 1.008-.296 1.23-1.264 1.242-4.564.066-4.564.095-4.564-4.364 0-5.023-.11-10.05.058-15.069.062-1.888-.75-2.258-2.274-2.291-2.207-.05-2.471.177-2.471 2.349 0 5.948-.033 11.897.025 17.841.012 1.193-.276 1.555-1.52 1.543-4.362-.041-4.362.012-4.362-4.39 0-6.006.041-12.012-.033-18.014-.017-1.308.428-1.896 1.615-2.402 4.567-1.954 9.049-1.896 13.567.136.931.42 1.248.93 1.232 1.941-.066 3.522-.025 7.043-.03 10.565ZM162.293 47.534c0 3.583-.045 7.17.025 10.753.021 1.078-.276 1.345-1.347 1.354-4.506.037-4.506.074-4.506-4.44V40.459c0-2.394-.16-2.575-2.282-2.554-2.257.02-2.372.14-2.372 2.468 0 5.899-.029 11.794.029 17.693.012 1.164-.219 1.724-1.5 1.56-1.412-.182-3.311.624-4.135-.334-.696-.81-.231-2.641-.235-4.02-.012-6.071.037-12.143-.041-18.21-.016-1.198.408-1.683 1.442-2.144 4.543-2.024 9.024-2.011 13.571.004 1.092.482 1.405 1.062 1.38 2.205-.078 3.468-.029 6.94-.029 10.408ZM248.712 47.485c0-3.522.045-7.047-.029-10.569-.024-1.098.367-1.6 1.355-2.036 4.494-1.995 8.922-1.979 13.374.095.775.362 1.121.773 1.117 1.678-.037 7.277-.037 14.555-.005 21.828.005.917-.275 1.13-1.173 1.155-4.56.12-4.56.149-4.56-4.352 0-1.328-.041-2.657.008-3.982.029-.773-.288-.95-1.009-1.004-3.295-.242-3.295-.263-3.295 3.053 0 1.732-.033 3.468.029 5.195.033.848-.26 1.045-1.079 1.086-4.737.23-4.737.255-4.737-4.352.004-2.6.004-5.2.004-7.795Zm5.783-5.36v1.209c0 3.027 0 2.995 3.019 2.945.91-.016 1.355-.164 1.302-1.226-.091-1.838-.132-3.69.004-5.524.136-1.806-.997-1.786-2.191-1.782-1.191.005-2.402-.028-2.155 1.79.116.847.021 1.724.021 2.587ZM289.304 46.802c0-3.929.024-7.858-.021-11.782-.012-.954.227-1.337 1.248-1.308 2.196.066 4.399-.041 6.59.045 1.257.05 2.534.054 3.757.527 4.58 1.78 4.588 1.769 4.588 6.66 0 4.97-.037 9.934.025 14.904.012 1.082-.342 1.662-1.293 2.139-2.113 1.061-4.346 1.559-6.677 1.612-2.253.054-4.514-.061-6.763.05-1.298.066-1.495-.436-1.475-1.58.062-3.76.021-7.516.021-11.267Zm5.762-.07v6.586c0 2.328 0 2.328 2.36 2.18 2.138-.136 2.315-.329 2.315-2.464-.004-4.274-.07-8.548.037-12.822.037-1.465-.564-1.983-1.849-2.07-.519-.033-1.046.013-1.557-.057-1.108-.153-1.359.341-1.331 1.374.07 2.423.025 4.85.025 7.273ZM307.917 46.806c0-3.353.054-6.706-.029-10.054-.029-1.127.387-1.605 1.388-2 4.568-1.789 9.091-1.826 13.642.038.849.345 1.31.728 1.24 1.748-.103 1.493-.07 3.003-.013 4.505.033.88-.205 1.316-1.153 1.197-.399-.05-.807-.013-1.215-.017-3.254-.012-3.287-.012-3.439-3.188-.037-.806-.309-1.172-1.079-1.213-.462-.025-.927-.013-1.388-.058-1.578-.16-2.385.354-2.138 2.11.206 1.465-.626 3.443.338 4.299.819.732 2.743.226 4.18.26.519.011 1.055.07 1.561-.013 1.763-.284 2.328.337 2.291 2.184-.033 1.662-.408 2.234-2.105 2.061-1.603-.164-3.242.033-4.856-.066-1.191-.074-1.491.37-1.409 1.481.095 1.32.136 2.67-.008 3.982-.223 2.008 1.136 1.757 2.319 1.77 1.206.012 2.426.221 2.31-1.778-.156-2.719-.024-2.727 2.636-2.723 3.135 0 3.135 0 3.135 3.163v.519c0 3.653.008 3.698-3.575 4.45-3.868.815-7.69.642-11.447-.686-.889-.317-1.244-.749-1.219-1.745.078-3.406.033-6.816.033-10.226ZM108.797 46.843c0-3.41.033-6.82-.02-10.227-.017-.946.247-1.407 1.169-1.777 4.609-1.868 9.181-1.942 13.795-.045.844.345 1.314.72 1.244 1.74-.103 1.497-.066 3.003-.009 4.504.033.864-.177 1.33-1.137 1.198-.341-.046-.692-.005-1.042-.009-1.095-.016-2.43.342-3.229-.156-.935-.58-.296-2.02-.333-3.077-.029-.856-.421-1.119-1.141-1.164-.577-.037-1.158-.037-1.734-.07-1.294-.074-1.883.415-1.751 1.818.144 1.539-.49 3.567.284 4.521.816 1.008 2.925.226 4.461.333.346.025.696.004 1.042.004 2.48 0 2.389.004 2.484 2.452.057 1.46-.416 1.876-1.837 1.765-1.668-.132-3.357.037-5.029-.045-1.038-.05-1.475.214-1.393 1.324.091 1.263-.037 2.547.042 3.81.041.666-.499 1.674.572 1.92 1.228.285 2.632.548 3.699-.217.704-.506.317-1.642.235-2.46-.145-1.403.362-1.72 1.705-1.695 4.082.078 4.082.02 4.082 4.159 0 3.15 0 3.143-3.159 3.895-3.922.938-7.785.766-11.624-.48-1.017-.33-1.438-.832-1.409-1.975.091-3.34.033-6.694.033-10.046ZM183.234 46.9c0-3.311.025-6.623-.021-9.934-.012-.86.235-1.333 1.063-1.695 4.757-2.086 9.478-2.09 14.219.037.642.288.988.6.967 1.378a158.277 158.277 0 0 0-.004 6.68c.013.708-.156 1.107-.955.98-.058-.008-.116 0-.173 0-1.495-.037-3.427.477-4.366-.255-.993-.774-.4-2.781-.284-4.22.148-1.88-1.162-1.725-2.212-1.692-1.051.033-2.48-.378-2.426 1.666a267.31 267.31 0 0 1-.004 14.045c-.042 1.53.671 1.814 1.886 1.892 2.34.156 2.718-.16 2.714-2.382-.008-3.9-.004-3.817 3.971-3.88 1.52-.024 2.014.338 1.878 1.868-.152 1.7-.136 3.431-.004 5.134.103 1.3-.346 1.95-1.586 2.35-4.44 1.423-8.839 1.456-13.263-.066-1.108-.383-1.454-.975-1.425-2.131.083-3.267.025-6.52.025-9.775ZM96.758 49.072c0-3.003-.05-6.01.024-9.013.03-1.078-.28-1.357-1.346-1.349-3.048.02-2.946-.037-3.086-3.028-.074-1.592.371-2.044 1.97-1.995 3.813.124 7.636.066 11.454.029.951-.008 1.442.218 1.26 1.25-.041.227-.004.461-.004.692-.004 3.02-.004 3.08-3.048 3.044-1.178-.017-1.425.37-1.417 1.468.05 6.01-.004 12.02.05 18.03.008 1.116-.268 1.449-1.421 1.445-4.436-.013-4.436.033-4.436-4.328v-6.245ZM267.189 46.678c0-3.875.042-7.746-.028-11.621-.021-1.09.313-1.345 1.363-1.362 4.531-.065 4.531-.102 4.531 4.423 0 5.146.037 10.292-.021 15.434-.012 1.082.28 1.469 1.355 1.32.569-.077 1.158-.016 1.734-.016 3.538.004 3.909.473 3.353 4.028-.099.63-.362.732-.898.728a908.04 908.04 0 0 0-10.594.004c-1.12.008-.786-.77-.79-1.32-.021-3.876-.013-7.747-.013-11.622a.012.012 0 0 0 .008.004ZM71.352 46.62c0 3.868-.045 7.739.03 11.601.02 1.165-.347 1.416-1.455 1.416-4.432 0-4.432.04-4.436-4.316 0-6.64.037-13.279-.041-19.914-.017-1.399.395-1.728 1.738-1.712 4.168.054 4.168 0 4.168 4.09v8.832c0 .004 0 .004-.004.004ZM207.935 46.62c0 3.818-.037 7.632.025 11.45.016 1.126-.165 1.702-1.475 1.566-1.367-.144-3.188.428-4.028-.263-.989-.818-.313-2.698-.321-4.113-.046-6.59.004-13.18-.054-19.771-.012-1.263.177-1.826 1.66-1.802 4.189.078 4.189 0 4.189 4.262.004 2.892.004 5.78.004 8.672Z"/><path fill="#FCFCFB" d="M165.325 215.16c6.384-.009 12.764-.013 19.149-.021-.058 1.703-.107 3.406-.169 5.109-.181 4.974 2.978 8.911 7.348 9.157 5.425.309 9.716-3.208 9.931-8.346.078-1.847-.35-3.711-.548-5.57.144-.218.214-.441.593-.436 6.936.053 13.872.082 20.804.115-.082 10.848-9.934 22.975-23.271 25.694-15.092 3.081-31.156-7.939-33.726-23.086-.148-.864-.235-1.732-.111-2.616Z"/><path fill="#010101" d="m286.186 219.302-.396-.424c.272-.148.499-.148.618.19l-.222.234ZM316.229 225.58c.218-.075.362-.173.482-.153.111.021.305.124.165.317-.046.058-.169.115-.227.099-.123-.045-.226-.14-.42-.263ZM71.546 225.559c.156-.123.33-.214.478-.012.02.024-.144.189-.223.288-.086-.095-.173-.186-.255-.276Z"/><path fill="#B60015" d="M201.032 215.497c.197 1.855.622 3.723.548 5.57-.211 5.134-4.502 8.651-9.931 8.347-4.37-.247-7.529-4.184-7.348-9.158.062-1.703.115-3.406.169-5.109.341-6.549.692-13.098 1.029-19.647.145-2.752.301-5.508.379-8.26.033-1.189.313-1.74 1.71-1.699 10.21.312 20.421.506 30.632.798 4.275.123 7.043 3.513 6.557 7.795-.222 1.963-.35 3.937-.539 6.15-1.916-.921-3.707-1.727-5.446-2.641-.828-.436-1.503-.395-2.314.029a1321.594 1321.594 0 0 1-15.162 7.8c-.902.456-1.314.954-1.228 2.02.227 2.673.4 5.36.944 8.005Zm-2.352-16.665c2.187-.024 4.238-1.707 4.642-3.751.132-.683.025-1.033-.77-1.021-2.583.037-5.166.046-7.744.037-.774-.004-.89.28-.754 1.004.383 2.024 2.476 3.756 4.626 3.731Z"/><path fill="#FCFCFB" d="M198.68 198.832c-2.15.025-4.243-1.707-4.626-3.735-.136-.724-.02-1.008.754-1.004 2.583.013 5.165 0 7.744-.037.795-.012.902.337.77 1.02-.404 2.049-2.455 3.731-4.642 3.756Z"/></svg>