<svg xmlns="http://www.w3.org/2000/svg" width="1200" height="630" viewBox="0 0 1200 630" role="img" aria-labelledby="title desc">
  <title id="title">Barra Popular Legion Bacata Inter Bogota</title>
  <desc id="desc">Imagen Open Graph oficial de la comunidad de hinchas</desc>
  <defs>
    <linearGradient id="bg" x1="0" x2="1" y1="0" y2="1">
      <stop offset="0%" stop-color="#0b1020" />
      <stop offset="100%" stop-color="#1f2937" />
    </linearGradient>
    <linearGradient id="accent" x1="0" x2="1" y1="0" y2="1">
      <stop offset="0%" stop-color="#1d4ed8" />
      <stop offset="100%" stop-color="#dc2626" />
    </linearGradient>
    <filter id="soft" x="-20%" y="-20%" width="140%" height="140%">
      <feGaussianBlur stdDeviation="18" />
    </filter>
  </defs>

  <rect width="1200" height="630" fill="url(#bg)" />
  <circle cx="960" cy="90" r="180" fill="#2563eb" opacity="0.22" filter="url(#soft)" />
  <circle cx="260" cy="560" r="220" fill="#dc2626" opacity="0.18" filter="url(#soft)" />

  <g transform="translate(90 155)">
    <rect width="320" height="320" rx="64" fill="#0f172a" opacity="0.94" />
    <path
      d="M160 34c63 0 121 14 121 14v103c0 96-60 143-121 165-61-22-121-69-121-165V48s58-14 121-14z"
      fill="url(#accent)"
    />
    <path
      d="M160 64c48 0 92 10 92 10v76c0 74-43 110-92 129-49-19-92-55-92-129V74s44-10 92-10z"
      fill="none"
      stroke="#f8fafc"
      stroke-width="8"
      opacity="0.85"
    />
    <text
      x="160"
      y="198"
      text-anchor="middle"
      fill="#f8fafc"
      font-size="108"
      font-family="Inter, Segoe UI, Arial, sans-serif"
      font-weight="700"
      letter-spacing="2"
    >
      LB
    </text>
  </g>

  <text
    x="460"
    y="258"
    fill="#f8fafc"
    font-size="60"
    font-family="Inter, Segoe UI, Arial, sans-serif"
    font-weight="800"
    letter-spacing="0.2"
  >
    Barra Popular Legion Bacata
  </text>
  <text
    x="460"
    y="324"
    fill="#e2e8f0"
    font-size="42"
    font-family="Inter, Segoe UI, Arial, sans-serif"
    font-weight="600"
  >
    Inter Bogota
  </text>
  <text
    x="460"
    y="390"
    fill="#cbd5e1"
    font-size="28"
    font-family="Inter, Segoe UI, Arial, sans-serif"
    font-weight="500"
  >
    Hinchada unida - Transparencia - Participacion
  </text>
</svg>
